<svg width="16" height="16" viewBox="0 0 16 16" fill="none" xmlns="http://www.w3.org/2000/svg">
<path d="M1.17833 8.16965L0 9.34798L4.12417 11.1155L5.8925 15.2405L7.07083 14.0621L6.48167 11.1155L9.2425 8.35465L12.2508 14.7746L13.3667 13.6588L12.375 5.22298L14.7317 2.86548C14.8908 2.71174 15.0178 2.52783 15.1052 2.32449C15.1925 2.12115 15.2385 1.90245 15.2404 1.68115C15.2423 1.45985 15.2002 1.24038 15.1164 1.03556C15.0326 0.83073 14.9088 0.644643 14.7523 0.488156C14.5958 0.331668 14.4097 0.207913 14.2049 0.124111C14.0001 0.0403096 13.7806 -0.0018601 13.5593 6.29276e-05C13.338 0.00198595 13.1193 0.0479633 12.916 0.135312C12.7127 0.22266 12.5287 0.34963 12.375 0.508814L9.95583 2.92798L1.52 1.93548L0.465833 2.99048L6.83583 6.04881L4.125 8.75965L1.17833 8.16965Z" fill="#4F4F4F"/>
</svg>
