<svg width="18" height="20" viewBox="0 0 18 20" fill="none" xmlns="http://www.w3.org/2000/svg">
<path d="M8.77165 16.3255C9.74411 16.3255 10.6767 15.9392 11.3644 15.2516C12.052 14.5639 12.4383 13.6313 12.4383 12.6589C12.4383 11.6864 12.052 10.7538 11.3644 10.0661C10.6767 9.3785 9.74411 8.99219 8.77165 8.99219C7.79919 8.99219 6.86656 9.3785 6.17892 10.0661C5.49129 10.7538 5.10498 11.6864 5.10498 12.6589C5.10498 13.6313 5.49129 14.5639 6.17892 15.2516C6.86656 15.9392 7.79919 16.3255 8.77165 16.3255V16.3255Z" stroke="#2F80ED" stroke-width="1.5" stroke-miterlimit="10" stroke-linecap="round" stroke-linejoin="round"/>
<path d="M7.3418 12.6591L7.93763 13.2549C8.1118 13.4291 8.39596 13.4382 8.57013 13.2641L10.2018 11.7607" stroke="#2F80ED" stroke-width="1.5" stroke-linecap="round" stroke-linejoin="round"/>
<path d="M6.02157 19.0755H11.5216C15.2066 19.0755 15.8666 17.5997 16.0591 15.803L16.7466 10.303C16.9941 8.06635 16.3524 6.24219 12.4382 6.24219H5.1049C1.19074 6.24219 0.54907 8.06635 0.79657 10.303L1.48407 15.803C1.67657 17.5997 2.33657 19.0755 6.02157 19.0755Z" stroke="#2F80ED" stroke-width="1.5" stroke-miterlimit="10" stroke-linecap="round" stroke-linejoin="round"/>
<path d="M4.64648 5.93977V5.0506C4.64648 2.9881 6.30565 0.962266 8.36815 0.769766C8.94123 0.713462 9.51974 0.777767 10.0665 0.958542C10.6132 1.13932 11.116 1.43256 11.5426 1.81939C11.9691 2.20622 12.31 2.67808 12.5431 3.20459C12.7763 3.7311 12.8967 4.3006 12.8965 4.87643V6.14143" stroke="#2F80ED" stroke-width="1.5" stroke-miterlimit="10" stroke-linecap="round" stroke-linejoin="round"/>
</svg>
