<svg width="20" height="20" viewBox="0 0 20 20" fill="none" xmlns="http://www.w3.org/2000/svg">
<path d="M13.1329 0.75H6.69786C4.41536 0.75 3.9112 1.88667 3.61786 3.28L2.58203 8.23917H17.2487L16.2129 3.28C15.9195 1.88667 15.4154 0.75 13.1329 0.75V0.75Z" stroke="#2F80ED" stroke-width="1.5" stroke-linecap="round" stroke-linejoin="round"/>
<path d="M19.073 16.3243C19.1739 17.3968 18.3122 18.3226 17.2122 18.3226H15.4889C14.4989 18.3226 14.3614 17.9009 14.1872 17.3784L14.0039 16.8284C13.7472 16.0768 13.5822 15.5726 12.2622 15.5726H7.56886C6.24886 15.5726 6.05636 16.1409 5.8272 16.8284L5.64386 17.3784C5.4697 17.9009 5.3322 18.3226 4.3422 18.3226H2.61886C1.51886 18.3226 0.657197 17.3968 0.75803 16.3243L1.27136 10.7418C1.3997 9.36676 1.66553 8.23926 4.0672 8.23926H15.7639C18.1655 8.23926 18.4314 9.36676 18.5597 10.7418L19.073 16.3243Z" stroke="#2F80ED" stroke-width="1.5" stroke-linecap="round" stroke-linejoin="round"/>
<path d="M2.58219 5.48926H1.66553" stroke="#2F80ED" stroke-width="1.5" stroke-linecap="round" stroke-linejoin="round"/>
<path d="M18.1657 5.48926H17.249" stroke="#2F80ED" stroke-width="1.5" stroke-linecap="round" stroke-linejoin="round"/>
<path d="M9.91553 0.905762V2.73909" stroke="#2F80ED" stroke-width="1.5" stroke-linecap="round" stroke-linejoin="round"/>
<path d="M8.54053 2.73926H11.2905" stroke="#2F80ED" stroke-width="1.5" stroke-linecap="round" stroke-linejoin="round"/>
<path d="M4.41553 11.9058H7.16553" stroke="#2F80ED" stroke-width="1.5" stroke-linecap="round" stroke-linejoin="round"/>
<path d="M12.6655 11.9058H15.4155" stroke="#2F80ED" stroke-width="1.5" stroke-linecap="round" stroke-linejoin="round"/>
</svg>
