<svg width="19" height="19" viewBox="0 0 19 19" fill="none" xmlns="http://www.w3.org/2000/svg">
<path d="M14.2001 17.1001C13.4668 17.3168 12.6001 17.4168 11.5835 17.4168H6.58346C5.5668 17.4168 4.70013 17.3168 3.9668 17.1001C4.15013 14.9334 6.37513 13.2251 9.08346 13.2251C11.7918 13.2251 14.0168 14.9334 14.2001 17.1001V17.1001Z" stroke="#828282" stroke-width="1.5" stroke-linecap="round" stroke-linejoin="round"/>
<path d="M11.5833 0.75H6.58333C2.41667 0.75 0.75 2.41667 0.75 6.58333V11.5833C0.75 14.7333 1.7 16.4583 3.96667 17.1C4.15 14.9333 6.375 13.225 9.08333 13.225C11.7917 13.225 14.0167 14.9333 14.2 17.1C16.4667 16.4583 17.4167 14.7333 17.4167 11.5833V6.58333C17.4167 2.41667 15.75 0.75 11.5833 0.75ZM9.08333 10.8917C7.43333 10.8917 6.1 9.55 6.1 7.9C6.1 6.25 7.43333 4.91667 9.08333 4.91667C10.7333 4.91667 12.0667 6.25 12.0667 7.9C12.0667 9.55 10.7333 10.8917 9.08333 10.8917Z" stroke="#828282" stroke-width="1.5" stroke-linecap="round" stroke-linejoin="round"/>
<path d="M12.0668 7.89984C12.0668 9.54984 10.7334 10.8915 9.08343 10.8915C7.43343 10.8915 6.1001 9.54984 6.1001 7.89984C6.1001 6.24984 7.43343 4.9165 9.08343 4.9165C10.7334 4.9165 12.0668 6.24984 12.0668 7.89984Z" stroke="#828282" stroke-width="1.5" stroke-linecap="round" stroke-linejoin="round"/>
</svg>
