<svg width="18" height="18" viewBox="0 0 18 18" fill="none" xmlns="http://www.w3.org/2000/svg">
<path d="M8.93343 17.2668C13.5359 17.2668 17.2668 13.5359 17.2668 8.93343C17.2668 4.33093 13.5359 0.600098 8.93343 0.600098C4.33093 0.600098 0.600098 4.33093 0.600098 8.93343C0.600098 13.5359 4.33093 17.2668 8.93343 17.2668V17.2668Z" stroke="#828282" stroke-width="1.2" stroke-linecap="round" stroke-linejoin="round"/>
<path d="M8.9585 12.6836C9.95306 12.6836 10.9069 12.2885 11.6101 11.5852C12.3134 10.882 12.7085 9.92816 12.7085 8.93359C12.7085 7.93903 12.3134 6.9852 11.6101 6.28194C10.9069 5.57868 9.95306 5.18359 8.9585 5.18359C7.96393 5.18359 7.01011 5.57868 6.30685 6.28194C5.60358 6.9852 5.2085 7.93903 5.2085 8.93359C5.2085 9.92816 5.60358 10.882 6.30685 11.5852C7.01011 12.2885 7.96393 12.6836 8.9585 12.6836V12.6836Z" stroke="#828282" stroke-width="1.2" stroke-linecap="round" stroke-linejoin="round"/>
<path d="M3.0415 3.04199L5.9915 5.98366" stroke="#828282" stroke-width="1.2" stroke-linecap="round" stroke-linejoin="round"/>
<path d="M3.0415 14.825L5.9915 11.8833" stroke="#828282" stroke-width="1.2" stroke-linecap="round" stroke-linejoin="round"/>
<path d="M14.8333 14.825L11.8833 11.8833" stroke="#828282" stroke-width="1.2" stroke-linecap="round" stroke-linejoin="round"/>
<path d="M14.8333 3.04199L11.8833 5.98366" stroke="#828282" stroke-width="1.2" stroke-linecap="round" stroke-linejoin="round"/>
</svg>
