<svg width="18" height="17" viewBox="0 0 18 17" fill="none" xmlns="http://www.w3.org/2000/svg">
<path d="M4.8501 13.6851L7.43343 15.6851C7.76676 16.0184 8.51676 16.1851 9.01676 16.1851H12.1834C13.1834 16.1851 14.2668 15.4351 14.5168 14.4351L16.5168 8.35178C16.9334 7.18511 16.1834 6.18511 14.9334 6.18511H11.6001C11.1001 6.18511 10.6834 5.76845 10.7668 5.18511L11.1834 2.51845C11.3501 1.76845 10.8501 0.935113 10.1001 0.685113C9.43343 0.435113 8.6001 0.768447 8.26676 1.26845L4.8501 6.35178" stroke="#828282" stroke-width="1.2" stroke-miterlimit="10"/>
<path d="M0.600098 13.6851V5.51839C0.600098 4.35173 1.1001 3.93506 2.26676 3.93506H3.1001C4.26677 3.93506 4.76677 4.35173 4.76677 5.51839V13.6851C4.76677 14.8517 4.26677 15.2684 3.1001 15.2684H2.26676C1.1001 15.2684 0.600098 14.8517 0.600098 13.6851Z" stroke="#828282" stroke-width="1.2" stroke-linecap="round" stroke-linejoin="round"/>
</svg>
