<svg width="20" height="19" viewBox="0 0 20 19" fill="none" xmlns="http://www.w3.org/2000/svg">
<path d="M5.4248 15.1435L8.26647 17.3435C8.63314 17.7102 9.45814 17.8935 10.0081 17.8935H13.4915C14.5915 17.8935 15.7831 17.0685 16.0581 15.9685L18.2581 9.27685C18.7165 7.99352 17.8915 6.89352 16.5165 6.89352H12.8498C12.2998 6.89352 11.8415 6.43518 11.9331 5.79352L12.3915 2.86018C12.5748 2.03518 12.0248 1.11852 11.1998 0.843517C10.4665 0.568517 9.5498 0.935184 9.18314 1.48518L5.4248 7.07685" stroke="#2F80ED" stroke-width="1.5" stroke-miterlimit="10"/>
<path d="M0.75 15.1435V6.16012C0.75 4.87679 1.3 4.41846 2.58333 4.41846H3.5C4.78333 4.41846 5.33333 4.87679 5.33333 6.16012V15.1435C5.33333 16.4268 4.78333 16.8851 3.5 16.8851H2.58333C1.3 16.8851 0.75 16.4268 0.75 15.1435Z" stroke="#2F80ED" stroke-width="1.5" stroke-linecap="round" stroke-linejoin="round"/>
</svg>
