<svg width="16" height="19" viewBox="0 0 16 19" fill="none" xmlns="http://www.w3.org/2000/svg">
<path d="M7.93643 10.275C8.27786 10.275 8.61596 10.2077 8.9314 10.077C9.24685 9.94638 9.53347 9.75486 9.7749 9.51343C10.0163 9.272 10.2079 8.98537 10.3385 8.66993C10.4692 8.35448 10.5364 8.01639 10.5364 7.67495C10.5364 7.33351 10.4692 6.99542 10.3385 6.67997C10.2079 6.36453 10.0163 6.07791 9.7749 5.83647C9.53347 5.59504 9.24685 5.40353 8.9314 5.27286C8.61596 5.1422 8.27786 5.07495 7.93643 5.07495C7.24686 5.07495 6.58554 5.34888 6.09795 5.83647C5.61035 6.32407 5.33643 6.98539 5.33643 7.67495C5.33643 8.36451 5.61035 9.02583 6.09795 9.51343C6.58554 10.001 7.24686 10.275 7.93643 10.275V10.275Z" stroke="#828282" stroke-width="1.5"/>
<path d="M0.953273 6.15834C2.59494 -1.05833 13.2866 -1.05 14.9199 6.16667C15.8783 10.4 13.2449 13.9833 10.9366 16.2C10.13 16.9779 9.05307 17.4127 7.93244 17.4127C6.81181 17.4127 5.73488 16.9779 4.92827 16.2C2.62827 13.9833 -0.00506016 10.3917 0.953273 6.15834V6.15834Z" stroke="#828282" stroke-width="1.5"/>
</svg>
