<svg width="20" height="20" viewBox="0 0 20 20" fill="none" xmlns="http://www.w3.org/2000/svg">
<path d="M9.91667 19.0833C14.9794 19.0833 19.0833 14.9794 19.0833 9.91667C19.0833 4.85392 14.9794 0.75 9.91667 0.75C4.85392 0.75 0.75 4.85392 0.75 9.91667C0.75 14.9794 4.85392 19.0833 9.91667 19.0833V19.0833Z" stroke="#2F80ED" stroke-width="1.5" stroke-linecap="round" stroke-linejoin="round"/>
<path d="M9.94434 14.0415C11.0384 14.0415 12.0876 13.6069 12.8612 12.8333C13.6347 12.0597 14.0693 11.0105 14.0693 9.9165C14.0693 8.82249 13.6347 7.77328 12.8612 6.99969C12.0876 6.2261 11.0384 5.7915 9.94434 5.7915C8.85032 5.7915 7.80111 6.2261 7.02752 6.99969C6.25393 7.77328 5.81934 8.82249 5.81934 9.9165C5.81934 11.0105 6.25393 12.0597 7.02752 12.8333C7.80111 13.6069 8.85032 14.0415 9.94434 14.0415V14.0415Z" stroke="#2F80ED" stroke-width="1.5" stroke-linecap="round" stroke-linejoin="round"/>
<path d="M3.43555 3.43604L6.68055 6.67187" stroke="#2F80ED" stroke-width="1.5" stroke-linecap="round" stroke-linejoin="round"/>
<path d="M3.43604 16.3975L6.68103 13.1616" stroke="#2F80ED" stroke-width="1.5" stroke-linecap="round" stroke-linejoin="round"/>
<path d="M16.4066 16.3975L13.1616 13.1616" stroke="#2F80ED" stroke-width="1.5" stroke-linecap="round" stroke-linejoin="round"/>
<path d="M16.4066 3.43604L13.1616 6.67187" stroke="#2F80ED" stroke-width="1.5" stroke-linecap="round" stroke-linejoin="round"/>
</svg>
